<svg width="24" height="22" viewBox="0 0 24 22" fill="none" xmlns="http://www.w3.org/2000/svg">
<g filter="url(#filter0_d_2863_636)">
<path d="M11 7H13V5H11V7ZM12 18C7.59 18 4 14.41 4 10C4 5.59 7.59 2 12 2C16.41 2 20 5.59 20 10C20 14.41 16.41 18 12 18ZM12 0C10.6868 0 9.38642 0.258658 8.17317 0.761205C6.95991 1.26375 5.85752 2.00035 4.92893 2.92893C3.05357 4.8043 2 7.34784 2 10C2 12.6522 3.05357 15.1957 4.92893 17.0711C5.85752 17.9997 6.95991 18.7362 8.17317 19.2388C9.38642 19.7413 10.6868 20 12 20C14.6522 20 17.1957 18.9464 19.0711 17.0711C20.9464 15.1957 22 12.6522 22 10C22 8.68678 21.7413 7.38642 21.2388 6.17317C20.7362 4.95991 19.9997 3.85752 19.0711 2.92893C18.1425 2.00035 17.0401 1.26375 15.8268 0.761205C14.6136 0.258658 13.3132 0 12 0ZM11 15H13V9H11V15Z" fill="black"/>
</g>
<defs>
<filter id="filter0_d_2863_636" x="-2" y="0" width="28" height="28" filterUnits="userSpaceOnUse" color-interpolation-filters="sRGB">
<feFlood flood-opacity="0" result="BackgroundImageFix"/>
<feColorMatrix in="SourceAlpha" type="matrix" values="0 0 0 0 0 0 0 0 0 0 0 0 0 0 0 0 0 0 127 0" result="hardAlpha"/>
<feOffset dy="4"/>
<feGaussianBlur stdDeviation="2"/>
<feComposite in2="hardAlpha" operator="out"/>
<feColorMatrix type="matrix" values="0 0 0 0 0 0 0 0 0 0 0 0 0 0 0 0 0 0 0.25 0"/>
<feBlend mode="normal" in2="BackgroundImageFix" result="effect1_dropShadow_2863_636"/>
<feBlend mode="normal" in="SourceGraphic" in2="effect1_dropShadow_2863_636" result="shape"/>
</filter>
</defs>
</svg>
